<svg width="1440" height="600" viewBox="0 0 1440 600" fill="none" xmlns="http://www.w3.org/2000/svg">
  <defs>
    <radialGradient id="bg" cx="0" cy="0" r="1" gradientUnits="userSpaceOnUse" gradientTransform="translate(720 -120) rotate(90) scale(720 1100)">
      <stop offset="0" stop-color="#1d4ed8" stop-opacity="0.75" />
      <stop offset="1" stop-color="#020617" />
    </radialGradient>
    <linearGradient id="light" x1="240" y1="80" x2="1200" y2="520" gradientUnits="userSpaceOnUse">
      <stop offset="0" stop-color="#fbbf24" stop-opacity="0.32" />
      <stop offset="1" stop-color="#f97316" stop-opacity="0.08" />
    </linearGradient>
    <linearGradient id="beam" x1="480" y1="160" x2="960" y2="440" gradientUnits="userSpaceOnUse">
      <stop stop-color="#38bdf8" stop-opacity="0.4" />
      <stop offset="1" stop-color="#a855f7" stop-opacity="0.2" />
    </linearGradient>
  </defs>
  <rect width="1440" height="600" fill="url(#bg)" />
  <ellipse cx="720" cy="560" rx="520" ry="120" fill="#0f172a" opacity="0.65" />
  <rect x="280" y="160" width="880" height="320" rx="48" fill="#0f172a" opacity="0.55" />
  <rect x="320" y="200" width="800" height="240" rx="36" fill="#1f2937" opacity="0.7" />
  <rect x="320" y="200" width="800" height="240" rx="36" fill="url(#light)" />
  <path d="M520 220h400c22.091 0 40 17.909 40 40v80c0 22.091-17.909 40-40 40H520c-22.091 0-40-17.909-40-40v-80c0-22.091 17.909-40 40-40z" fill="#020617" opacity="0.85" />
  <path d="M540 260c0-11.046 8.954-20 20-20h160c11.046 0 20 8.954 20 20v80c0 11.046-8.954 20-20 20H560c-11.046 0-20-8.954-20-20v-80z" fill="#111827" />
  <path d="M740 260l120 60-120 60v-120z" fill="#38bdf8" opacity="0.85" />
  <path d="M480 220l200-120 200 120-200 120-200-120z" fill="url(#beam)" opacity="0.8" />
  <g opacity="0.35" stroke="#38bdf8" stroke-width="2">
    <circle cx="340" cy="220" r="20" />
    <circle cx="1100" cy="240" r="18" />
    <circle cx="360" cy="360" r="24" />
    <circle cx="1080" cy="360" r="22" />
  </g>
  <text x="720" y="160" text-anchor="middle" fill="#f8fafc" font-size="64" font-weight="600" font-family="'Segoe UI', 'Helvetica Neue', Arial, sans-serif" opacity="0.95">
    Cinemateca retro en castellano
  </text>
  <text x="720" y="220" text-anchor="middle" fill="#e2e8f0" font-size="28" font-family="'Segoe UI', 'Helvetica Neue', Arial, sans-serif" opacity="0.85">
    Clásicos familiares, comedia española y anime listo para maratonear
  </text>
</svg>
